{"title":"The.Last.Exorcism.2010.1080p.BRRip.x264.AC3-Kay","uid":11702537,"size":2730482069,"categoryP":"video","categoryS":"hd___movies","magnet":"?xt=urn:btih:3da09589d06265902804d560d08b21ddd2f8d5e2&amp;dn=The.Last.Exorcism.2010.1080p.BRRip.x264.AC3-Kay&amp;tr=udp%3A%2F%2Ftracker.openbittorrent.com%3A80&amp;tr=udp%3A%2F%2Fopen.demonii.com%3A1337&amp;tr=udp%3A%2F%2Ftracker.coppersurfer.tk%3A6969&amp;tr=udp%3A%2F%2Fexodus.desync.com%3A6969","seeders":0,"leechers":1,"uploader":"thegame2012","files":6,"time":1423977462,"description":"The.Last.Exorcism.2010.1080p.BRRip.x264.AC3-Kay \nIncluding 2 Commentary Tracks...\n\n\nGeneral\nFormat                           : Matroska\nFile size                        : 2.54 GiB\nDuration                         : 1h 27mn\nOverall bit rate                 : 4 154 Kbps\n\n\nVideo\nID                               : 1\nFormat                           : AVC\nFormat/Info                      : Advanced Video Codec\nFormat profile                   : &lt;a class=&quot;__cf_email__&quot; href=&quot;/cdn-cgi/l/email-protection&quot; data-cfemail=&quot;d098b9b7b8909ce5fee0&quot;&gt;[email&amp;#160;protected]&lt;/a&gt;&lt;script cf-hash='f9e31' type=&quot;text/javascript&quot;&gt;\n/* &lt;![CDATA[ */!function(){try{var t=&quot;currentScript&quot;in document?document.currentScript:function(){for(var t=document.getElementsByTagName(&quot;script&quot;),e=t.length;e--;)if(t[e].getAttribute(&quot;cf-hash&quot;))return t[e]}();if(t&amp;&amp;t.previousSibling){var e,r,n,i,c=t.previousSibling,a=c.getAttribute(&quot;data-cfemail&quot;);if(a){for(e=&quot;&quot;,r=parseInt(a.substr(0,2),16),n=2;a.length-n;n+=2)i=parseInt(a.substr(n,2),16)^r,e+=String.fromCharCode(i);e=document.createTextNode(e),c.parentNode.replaceChild(e,c)}}}catch(u){}}();/* ]]&gt; */&lt;/script&gt;\nFormat settings, CABAC           : Yes\nFormat settings, ReFrames        : 5 frames\nDuration                         : 1h 27mn\nBit rate                         : 3 175 Kbps\nWidth                            : 1 920 pixels\nHeight                           : 1 072 pixels\nDisplay aspect ratio             : 16:9\nFrame rate                       : 23.976 fps\nResolution                       : 8 bits\nColorimetry                      : 4:2:0\nScan type                        : Progressive\nBits/(Pixel*Frame)               : 0.064\nStream size                      : 1.94 GiB (76%)\nWriting library                  : x264 core 133 r2334 a3ac64b\n\n\nAudio #1\nID                               : 2\nFormat                           : AC-3\nFormat/Info                      : Audio Coding 3\nCodec ID                         : A_AC3\nDuration                         : 1h 27mn\nBit rate mode                    : Constant\nBit rate                         : 448 Kbps\nChannel(s)                       : 6 channels\nChannel positions                : Front: L C R, Surround: L R, LFE\nSampling rate                    : 48.0 KHz\nStream size                      : 281 MiB (11%)\nLanguage                         : English\n\nAudio #2 (Commentary Track with Producers Eli Roth, Eric Newman and Tom Bliss)\nID                               : 3\nFormat                           : AC-3\nFormat/Info                      : Audio Coding 3\nFormat profile                   : Dolby Digital\nCodec ID                         : A_AC3\nDuration                         : 1h 27mn\nBit rate mode                    : Constant\nBit rate                         : 224 Kbps\nChannel(s)                       : 2 channels\nChannel positions                : L R\nSampling rate                    : 48.0 KHz\nStream size                      : 140 MiB (5%)\nLanguage                         : English\n\nAudio #3 (Commentary with Director Daniel Stamm and Actors Ashley Bell, Patrick Fabian and Louis Herthum)\nID                               : 4\nFormat                           : AC-3\nFormat/Info                      : Audio Coding 3\nFormat profile                   : Dolby Digital\nCodec ID                         : A_AC3\nDuration                         : 1h 27mn\nBit rate mode                    : Constant\nBit rate                         : 224 Kbps\nChannel(s)                       : 2 channels\nChannel positions                : L R\nSampling rate                    : 48.0 KHz\nStream size                      : 140 MiB (5%)\nLanguage                         : English\n\n\nScreenshots &lt;a href=&quot;\nhttp://s14.postimg.org/5q1pq1x5d/The_Last_Exorcism_2010_1080p_BRRip_x264_AC3_Kay.jpg&quot; rel=&quot;nofollow&quot; target=&quot;_NEW&quot;&gt;\nhttp://s14.postimg.org/5q1pq1x5d/The_Last_Exorcism_2010_1080p_BRRip_x264_AC3_Kay.jpg&lt;/a&gt; &lt;a href=&quot;\nhttp://s14.postimg.org/otv16e9zl/The_Last_Exorcism_2010_1080p_BRRip_x264_AC3_Kay.jpg&quot; rel=&quot;nofollow&quot; target=&quot;_NEW&quot;&gt;\nhttp://s14.postimg.org/otv16e9zl/The_Last_Exorcism_2010_1080p_BRRip_x264_AC3_Kay.jpg&lt;/a&gt; &lt;a href=&quot;\nhttp://s14.postimg.org/5alujalu9/The_Last_Exorcism_2010_1080p_BRRip_x264_AC3_Kay.jpg&quot; rel=&quot;nofollow&quot; target=&quot;_NEW&quot;&gt;\nhttp://s14.postimg.org/5alujalu9/The_Last_Exorcism_2010_1080p_BRRip_x264_AC3_Kay.jpg&lt;/a&gt; &lt;a href=&quot;\nhttp://s14.postimg.org/e4cr0e8sx/The_Last_Exorcism_2010_1080p_BRRip_x264_AC3_Kay.jpg&quot; rel=&quot;nofollow&quot; target=&quot;_NEW&quot;&gt;\nhttp://s14.postimg.org/e4cr0e8sx/The_Last_Exorcism_2010_1080p_BRRip_x264_AC3_Kay.jpg&lt;/a&gt;\n\n\n\nThanks for downloading, please remember to seed if you can!\n\n-Kay","torrent":{"xt":"urn:btih:3da09589d06265902804d560d08b21ddd2f8d5e2","amp;dn":"The.Last.Exorcism.2010.1080p.BRRip.x264.AC3-Kay","amp;tr":["udp%3A%2F%2Ftracker.openbittorrent.com%3A80","udp%3A%2F%2Fopen.demonii.com%3A1337","udp%3A%2F%2Ftracker.coppersurfer.tk%3A6969","udp%3A%2F%2Fexodus.desync.com%3A6969"],"infoHash":"3da09589d06265902804d560d08b21ddd2f8d5e2","infoHashBuffer":{"type":"Buffer","data":[61,160,149,137,208,98,101,144,40,4,213,96,208,139,33,221,210,248,213,226]},"announce":[],"urlList":[]}}